# AST/ASF file generated using VICON BodyLanguage
# -----------------------------------------------
:version 1.10
:name VICON
:units
  mass 1.0
  length 0.45
  angle deg
:documentation
   .ast/.asf automatically generated from VICON data using
   VICON BodyBuilder and BodyLanguage model FoxedUp or BRILLIANT.MOD
:root
   order TX TY TZ RX RY RZ
   axis XYZ
   position 0 0 0  
   orientation 0 0 0 
:bonedata
  begin
     id 1 
     name lhipjoint
     direction 0.621036 -0.695554 0.361275 
     length 2.46325 
     axis 0 0 0  XYZ
  end
  begin
     id 2 
     name lfemur
     direction 0.34202 -0.939693 0  
     length 6.54784  
     axis 0 0 20  XYZ
    dof rx ry rz
    limits (-160.0 20.0)
           (-70.0 70.0)
           (-60.0 70.0)
  end
  begin
     id 3 
     name ltibia
     direction 0.34202 -0.939693 0   
     length 7.84737   
     axis 0 0 20   XYZ
    dof rx
    limits (-10.0 170.0)
  end
  begin
     id 4 
     name lfoot
     direction 0.0790693 -0.217241 0.97291   
     length 2.59747   
     axis -90 7.62852e-016 20   XYZ
    dof rx rz
    limits (-45.0 90.0)
           (-70.0 20.0)
  end
  begin
     id 5 
     name ltoes
     direction 1.53572e-011 -4.21898e-011 1   
     length 1.29919   
     axis -90 7.62852e-016 20   XYZ
    dof rx
    limits (-90.0 20.0)
  end
  begin
     id 6 
     name rhipjoint
     direction -0.602353 -0.708375 0.367935   
     length 2.41867  
     axis 0 0 0  XYZ 
  end
  begin
     id 7 
     name rfemur
     direction -0.34202 -0.939693 0   
     length 6.92065   
     axis 0 0 -20   XYZ
    dof rx ry rz
    limits (-160.0 20.0)
           (-70.0 70.0)
           (-70.0 60.0)
  end
  begin
     id 8 
     name rtibia
     direction -0.34202 -0.939693 0   
     length 7.88883   
     axis 0 0 -20   XYZ
    dof rx
    limits (-10.0 170.0)
 end
 begin
     id 9 
     name rfoot
     direction -0.0768692 -0.211196 0.974416   
     length 2.43714  
     axis -90 -7.62852e-016 -20   XYZ
    dof rx rz
    limits (-45.0 90.0)
           (-20.0 70.0)
  end
  begin
     id 10 
     name rtoes
     direction -1.53575e-011 -4.21933e-011 1   
     length 1.22113   
     axis -90 -7.62852e-016 -20   XYZ
    dof rx
    limits (-90.0 20.0)
  end
  begin
     id 11 
     name lowerback
     direction 0.0197937 0.98943 -0.143655   
     length 2.16931   
     axis 0 0 0   XYZ
    dof rx ry rz
    limits (-20.0 45.0)
           (-30.0 30.0)
           (-30.0 30.0)
  end
  begin
     id 12 
     name upperback
     direction -0.00183968 0.999975 0.00684288   
     length 2.17221   
     axis 0 0 0   XYZ
    dof rx ry rz
    limits (-20.0 45.0)
           (-30.0 30.0)
           (-30.0 30.0)
  end
  begin
     id 13 
     name thorax
     direction -0.00950244 0.997208 0.0740685   
     length 2.22549   
     axis 0 0 0   XYZ
    dof rx ry rz
    limits (-20.0 45.0)
           (-30.0 30.0)
           (-30.0 30.0)
  end
  begin
     id 14 
     name lowerneck
     direction 0.0218238 0.996215 0.0841425   
     length 1.77269   
     axis 0 0 0   XYZ
    dof rx ry rz
    limits (-20.0 45.0)
           (-30.0 30.0)
           (-30.0 30.0)
  end
  begin
     id 15 
     name upperneck
     direction -0.00430652 0.994214 -0.107332   
     length 1.76534   
     axis 0 0 0   XYZ
    dof rx ry rz
    limits (-20.0 45.0)
           (-30.0 30.0)
           (-30.0 30.0)
  end
  begin
     id 16
     name head
     direction -0.00328946 0.998959 -0.0454998  
     length 1.82634  
     axis 0 0 0   XYZ
    dof rx ry rz
    limits (-20.0 45.0)
           (-30.0 30.0)
           (-30.0 30.0)
  end
  begin
     id 17 
     name lclavicle
     direction 0.970962 0.239191 0.00450212  
     length 3.84872  
     axis 0 0 0   XYZ
    dof ry rz
    limits (-20.0 10.0)
           (0.0 20.0)
  end
  begin
     id 18 
     name lhumerus
     direction 1 -4.48966e-011 5.74696e-028   
     length 5.22771   
     axis 180 -30 -90   XYZ
    dof rx ry rz
    limits (-60.0 90.0)
           (-90.0 90.0)
           (-90.0 90.0)
  end
  begin
     id 19
     name lradius
     direction 1 -4.4896e-011 4.25109e-027   
     length 3.45251   
     axis 180 -30 -90   XYZ
    dof rx
    limits (-10.0 170.0)
  end
  begin
     id 20
     name lwrist
     direction 1 -4.48971e-011 1.15382e-027   
     length 1.72626   
     axis -5.52449e-016 90 90   XYZ
    dof ry
    limits (-180.0 0.0)
 end
  begin
     id 21 
     name lhand
     direction 1 -4.49034e-011 2.30765e-027   
     length 0.552119   
     axis -1.47248e-015 90 90   XYZ
    dof rx rz
    limits (-90.0 90.0)
           (-45.0 45.0)
  end
  begin
     id 22 
     name lfingers
     direction 1 -4.48951e-011 4.61529e-027   
     length 0.445133   
     axis -2.94495e-015 90 90   XYZ
    dof rx
    limits (0.0 90.0)
  end
  begin
     id 23
     name lthumb
     direction 0.707107 -6.34991e-011 0.707107   
     length 0.639124   
     axis -90 45 2.85299e-015   XYZ
    dof rx rz
    limits (-45.0 45.0)
           (-45.0 45.0)
  end
  begin
     id 24 
     name rclavicle
     direction -0.97424 0.222511 -0.0366699   
     length 3.73439  
     axis 0 0 0   XYZ 
    dof ry rz
    limits (-10.0 20.0)
           (-20.0 0.0)
  end
  begin
     id 25 
     name rhumerus
     direction -1 -4.48956e-011 -4.97258e-028  
     length 5.2398   
     axis 180 30 90   XYZ
    dof rx ry rz
    limits (-90.0 60.0)
           (-90.0 90.0)
           (-90.0 90.0)
  end
  begin
     id 26 
     name rradius
     direction -1 -4.4897e-011 -1.72611e-027   
     length 3.48042   
     axis 180 30 90   XYZ
    dof rx
    limits (-10.0 170.0)
  end
  begin
     id 27 
     name rwrist
     direction -1 -4.48976e-011 1.15382e-027   
     length 1.74021   
     axis -5.52449e-016 -90 -90   XYZ
    dof ry
    limits (-180.0 0.0)
  end
  begin
     id 28
     name rhand
     direction -1 -4.48963e-011 2.30765e-027   
     length 0.618713   
     axis -1.47248e-015 -90 -90   XYZ
    dof rx rz
    limits (-90.0 90.0)
           (-45.0 45.0)
  end
  begin
     id 29
     name rfingers
     direction -1 -4.4888e-011 4.61529e-027   
     length 0.498823   
     axis -2.94495e-015 -90 -90   XYZ
    dof rx
    limits (0.0 90.0)
  end
  begin
     id 30
     name rthumb
     direction -0.707107 -6.34968e-011 0.707107   
     length 0.716213   
     axis -90 -45 -2.85299e-015   XYZ
    dof rx rz
    limits (-45.0 45.0)
           (-45.0 45.0)
  end
:hierarchy
  begin
    root lhipjoint rhipjoint lowerback
    lhipjoint lfemur
    lfemur ltibia
    ltibia lfoot
    lfoot ltoes
    rhipjoint rfemur
    rfemur rtibia
    rtibia rfoot
    rfoot rtoes
    lowerback upperback
    upperback thorax
    thorax lowerneck lclavicle rclavicle
    lowerneck upperneck
    upperneck head
    lclavicle lhumerus
    lhumerus lradius
    lradius lwrist
    lwrist lhand lthumb
    lhand lfingers
    rclavicle rhumerus
    rhumerus rradius
    rradius rwrist
    rwrist rhand rthumb
    rhand rfingers
  end

#!OML:ASF G:\JayActor3\Patient Classification 1\Patient 1\Session 5\male.ASF
:FULLY-SPECIFIED
:DEGREES
27
root 49.3584 16.086 -3.0474 145.997 -86.5346 -144.769
lowerback 3.83658 -1.34036 -0.472124
upperback 2.76055 -1.84576 -0.358934
thorax 0.684339 -0.946877 -0.0453405
lowerneck -6.76797 -0.026554 2.63041
upperneck -3.14639 -0.326287 3.47036
head 0.147519 -0.220612 0.619301
rclavicle -2.48481e-015 7.95139e-016
rhumerus -34.5701 -11.4635 -82.7055
rradius 26.7674
rwrist 4.98051
rhand -18.0478 -4.74877
rfingers 7.12502
rthumb 8.22416 -34.5687
lclavicle -2.48481e-015 7.95139e-016
lhumerus -25.12 1.25923 85.0795
lradius 27.4958
lwrist 13.0203
lhand -17.5386 16.7905
lfingers 7.12502
lthumb 8.71564 46.5905
rfemur -40.609 2.83123 22.4248
rtibia 53.888
rfoot -20.7913 -18.479
rtoes -2.57375
lfemur 6.29067 12.3192 -21.7761
ltibia 12.125
lfoot -21.4437 16.494
ltoes -2.01876
28
root 49.3092 16.0865 -3.04297 146.643 -86.6144 -145.352
lowerback 3.87664 -1.36516 -0.582667
upperback 2.77717 -1.88287 -0.35845
thorax 0.68276 -0.967254 0.0189182
lowerneck -6.74625 0.000917926 2.66455
upperneck -3.39555 -0.287635 3.44915
head 0.0668683 -0.209955 0.607943
rclavicle -1.19271e-014 -1.39149e-014
rhumerus -34.6941 -11.6333 -82.5537
rradius 26.6145
rwrist 5.13078
rhand -18.0627 -4.74135
rfingers 7.12502
rthumb 8.20979 -34.5618
lclavicle -1.19271e-014 -1.39149e-014
lhumerus -25.0516 0.685681 85.292
lradius 28.1636
lwrist 13.4712
lhand -17.5589 16.7382
lfingers 7.12502
lthumb 8.69606 46.5391
rfemur -40.7895 2.95615 22.3448
rtibia 52.5041
rfoot -20.5776 -18.0839
rtoes -3.06428
lfemur 6.96286 12.3192 -21.8549
ltibia 11.0985
lfoot -21.1194 16.5187
ltoes -2.09316
29
root 49.2583 16.0863 -3.03885 147.643 -86.7035 -146.285
lowerback 3.90688 -1.389 -0.707287
upperback 2.79373 -1.91909 -0.366708
thorax 0.686906 -0.987327 0.0818125
lowerneck -6.72745 0.028707 2.70334
upperneck -3.63511 -0.249417 3.42649
head -0.0101485 -0.199362 0.595426
rclavicle 1.12313e-014 1.19271e-015
rhumerus -34.8226 -11.8045 -82.4042
rradius 26.4678
rwrist 5.263
rhand -18.0908 -4.7311
rfingers 7.12502
rthumb 8.1827 -34.5527
lclavicle 1.12313e-014 1.19271e-015
lhumerus -24.9768 0.144819 85.4891
lradius 28.7849
lwrist 13.85
lhand -17.595 16.6454
lfingers 7.12502
lthumb 8.66119 46.4477
rfemur -40.9548 3.09167 22.2261
rtibia 51.1076
rfoot -20.3456 -17.6803
rtoes -3.55058
lfemur 7.70974 12.3383 -21.9503
ltibia 9.93633
lfoot -20.7306 16.5342
ltoes -2.20088
30
root 49.2058 16.0856 -3.0352 148.891 -86.7979 -147.464
lowerback 3.93269 -1.41132 -0.839523
upperback 2.80356 -1.9534 -0.380134
thorax 0.686839 -1.00642 0.143614
lowerneck -6.68104 0.0565333 2.73769
upperneck -3.88116 -0.209313 3.411
head -0.0933607 -0.188155 0.585908
rclavicle -3.18055e-015 -7.95139e-015
rhumerus -34.9499 -12.0069 -82.2454
rradius 26.3025
rwrist 5.40795
rhand -18.1271 -4.71572
rfingers 7.12502
rthumb 8.14768 -34.5386
lclavicle -3.18055e-015 -7.95139e-015
lhumerus -24.9022 -0.369049 85.6772
lradius 29.3621
lwrist 14.1631
lhand -17.6406 16.6225
lfingers 7.12502
lthumb 8.61716 46.4266
rfemur -41.1016 3.24441 22.0778
rtibia 49.7036
rfoot -20.1123 -17.2833
rtoes -3.96246
lfemur 8.55882 12.357 -22.055
ltibia 8.59043
lfoot -20.2584 16.5593
ltoes -2.33284
31
root 49.1513 16.0844 -3.03201 150.291 -86.8975 -148.795
lowerback 3.95061 -1.43414 -0.972503
upperback 2.81587 -1.98837 -0.398202
thorax 0.69374 -1.02588 0.200827
lowerneck -6.63395 0.0849796 2.76316
upperneck -4.1219 -0.167878 3.40859
head -0.174766 -0.176088 0.581914
rclavicle -1.58034e-014 -4.37326e-015
rhumerus -35.0668 -12.227 -82.0855
rradius 26.1264
rwrist 5.55732
rhand -18.1692 -4.69698
rfingers 7.12502
rthumb 8.10705 -34.5215
lclavicle -1.58034e-014 -4.37326e-015
lhumerus -24.8131 -0.845453 85.8521
lradius 29.8822
lwrist 14.412
lhand -17.7047 16.6054
lfingers 7.12502
lthumb 8.55533 46.4121
rfemur -41.2271 3.41675 21.9037
rtibia 48.2978
rfoot -19.9047 -16.9084
rtoes -4.2688
lfemur 9.56889 12.3711 -22.1635
ltibia 6.95801
lfoot -19.6522 16.5984
ltoes -2.49577
32
root 49.095 16.0828 -3.02916 151.788 -87.0013 -150.223
lowerback 3.96442 -1.45769 -1.10039
upperback 2.82153 -2.02402 -0.419775
thorax 0.695961 -1.04548 0.251625
lowerneck -6.5588 0.107702 2.80192
upperneck -4.36712 -0.133394 3.39956
head -0.261869 -0.168025 0.573688
rclavicle -2.36554e-014 1.03368e-014
rhumerus -35.1941 -12.4542 -81.9231
rradius 25.9471
rwrist 5.70766
rhand -18.2089 -4.68506
rfingers 7.12502
rthumb 8.0687 -34.511
lclavicle -2.36554e-014 1.03368e-014
lhumerus -24.7247 -1.2862 86.016
lradius 30.3421
lwrist 14.6045
lhand -17.7778 16.5968
lfingers 7.12502
lthumb 8.48476 46.4064
rfemur -41.3311 3.61246 21.7061
rtibia 46.8963
rfoot -19.7293 -16.5903
rtoes -4.53712
lfemur 10.8923 12.3795 -22.274
ltibia 4.76196
lfoot -18.7827 16.6558
ltoes -2.67076
